<?xml version="1.0" standalone="no"?>
<!DOCTYPE svg PUBLIC "-//W3C//DTD SVG 20010904//EN"
 "http://www.w3.org/TR/2001/REC-SVG-20010904/DTD/svg10.dtd">
<svg version="1.0" xmlns="http://www.w3.org/2000/svg"
 width="1280.000000pt" height="640.000000pt" viewBox="0 0 1280.000000 640.000000"
 preserveAspectRatio="xMidYMid meet">
<metadata>
Created by potrace 1.15, written by Peter Selinger 2001-2017
</metadata>
<g transform="translate(0.000000,640.000000) scale(0.100000,-0.100000)"
fill="#000000" stroke="none">
<path d="M6770 5134 c-375 -32 -552 -63 -818 -141 l-123 -36 65 -66 c36 -37
66 -71 66 -76 0 -6 -91 -63 -203 -129 -571 -335 -1055 -650 -1193 -776 -41
-37 -43 -38 -148 -45 -227 -16 -445 28 -572 115 l-44 31 -118 -11 c-679 -65
-1470 -179 -1766 -254 -77 -20 -163 -36 -191 -36 -167 0 -424 -115 -629 -281
-74 -60 -99 -74 -169 -95 -132 -39 -214 -72 -347 -141 -162 -83 -291 -175
-412 -294 l-98 -97 0 -53 c0 -68 18 -355 30 -478 l9 -93 -55 -78 -54 -78 57
-27 c284 -132 811 -232 1322 -251 l180 -7 3 94 3 93 42 8 c75 12 93 1 138 -88
55 -110 96 -166 189 -262 169 -174 347 -268 588 -308 314 -52 628 44 873 268
78 71 178 206 222 298 20 41 41 78 47 83 6 4 45 6 86 5 l75 -3 -2 -66 -2 -67
72 -6 c75 -6 3073 -21 4227 -21 l665 0 0 55 c1 30 4 61 8 68 6 8 35 12 87 12
l79 0 41 -77 c116 -223 327 -412 552 -494 138 -51 208 -62 378 -63 157 -1 202
6 330 46 244 77 457 263 591 516 l34 64 128 5 c143 5 157 1 157 -53 0 -31 1
-33 33 -28 234 33 1113 156 1147 160 83 11 122 38 254 180 70 75 135 153 146
175 22 43 26 121 9 166 -19 49 -12 237 16 423 46 298 37 324 -170 525 -125
122 -148 149 -175 208 -16 37 -32 67 -34 67 -1 0 -108 27 -237 60 l-234 59 0
51 1 50 -61 0 c-33 0 -91 3 -128 7 l-68 6 2 53 c2 30 1 56 -2 58 -2 3 -56 -2
-119 -10 -63 -7 -119 -14 -123 -14 -5 0 -7 33 -6 73 1 39 -1 74 -5 76 -4 2
-51 -4 -105 -14 l-98 -18 -119 43 c-223 80 -838 281 -1084 355 -1119 336
-1827 496 -2475 560 -150 15 -665 28 -765 19z m800 -310 c214 -20 442 -53 458
-66 7 -7 12 -21 9 -32 -4 -20 -59 -198 -193 -623 l-57 -182 -61 -5 c-34 -3
-293 -13 -576 -21 -283 -9 -634 -20 -780 -25 -146 -5 -367 -12 -492 -16 l-227
-7 -6 39 c-30 183 -124 304 -237 304 -140 0 -324 -119 -455 -295 -49 -66 -62
-73 -145 -74 -61 -1 -78 10 -56 36 18 23 787 534 944 629 264 158 511 261 724
303 306 58 755 72 1150 35z m968 -170 c683 -169 1253 -384 1306 -493 23 -47 2
-75 -74 -99 -65 -21 -409 -51 -1115 -96 -317 -21 -403 -22 -417 -8 -9 9 -5 95
16 369 16 197 30 361 33 366 9 15 70 6 251 -39z m-649 -771 c23 -27 60 -86 83
-132 l43 -84 -1 -116 c0 -85 -6 -139 -22 -201 -63 -244 -227 -585 -367 -765
-196 -251 -445 -414 -715 -469 -58 -11 -213 -17 -670 -26 -575 -10 -1148 -22
-1701 -36 -180 -5 -268 -4 -272 3 -8 13 -75 872 -84 1063 -6 153 5 245 42 353
59 169 251 414 292 374 3 -4 -28 -42 -68 -85 -82 -88 -127 -157 -168 -259 -44
-109 -55 -169 -56 -303 0 -179 73 -1071 89 -1088 11 -11 105 -11 532 -2 285 6
850 17 1254 25 813 15 802 14 982 85 113 44 261 139 364 234 139 128 248 297
383 595 116 259 133 314 139 447 6 161 -25 259 -114 354 -24 26 -44 54 -44 64
0 31 38 16 79 -31z m-6110 -197 c9 -11 1 -27 -40 -76 -123 -146 -359 -326
-552 -420 -174 -84 -373 -141 -392 -111 -23 39 203 253 417 394 149 98 339
183 483 216 58 13 71 13 84 -3z m10679 -187 c24 -47 46 -103 49 -126 l5 -40
-152 -6 c-84 -4 -288 -7 -453 -7 -273 0 -308 2 -377 21 -84 22 -245 98 -242
114 1 14 36 19 532 75 245 27 459 51 475 53 17 3 50 4 75 3 l45 -1 43 -86z
m-9608 -356 c151 -37 345 -145 446 -248 102 -105 190 -278 220 -432 40 -212
-6 -417 -140 -617 -121 -182 -240 -273 -441 -342 -108 -36 -280 -44 -405 -19
-128 26 -280 86 -348 138 -158 122 -275 292 -324 472 -71 259 10 594 193 789
142 152 330 250 534 280 51 7 197 -4 265 -21z m7274 2 c145 -38 253 -97 363
-199 309 -287 370 -722 153 -1087 -106 -179 -296 -319 -505 -373 -89 -23 -242
-38 -310 -31 -327 34 -645 313 -730 640 -64 246 13 568 184 772 195 233 559
352 845 278z m-9621 -370 c76 -20 124 -45 170 -90 34 -34 87 -121 87 -145 0
-6 -55 -10 -155 -10 l-155 0 0 -29 0 -30 -111 -3 c-61 -2 -119 0 -128 4 -11 4
-20 21 -24 43 -3 21 -17 47 -32 60 -43 40 -32 115 23 160 64 51 213 69 325 40z
m-51 -353 c6 -6 11 -37 12 -69 l1 -58 -112 -3 c-127 -3 -125 -4 -138 82 -5 36
-3 51 7 58 17 12 217 3 230 -10z m-2 -172 c0 -19 -30 -84 -48 -103 -22 -24
-85 -57 -110 -57 -16 0 -22 13 -35 78 -8 42 -13 80 -10 85 7 11 203 9 203 -3z"/>
<path d="M2521 3085 c-358 -78 -560 -298 -616 -672 -18 -120 -18 -186 -1 -283
42 -229 178 -402 401 -510 147 -71 244 -94 385 -93 405 2 725 282 782 682 26
185 -49 440 -177 603 -171 217 -497 333 -774 273z"/>
<path d="M9807 3090 c-180 -32 -321 -103 -438 -220 -72 -71 -94 -101 -136
-187 -69 -137 -88 -223 -88 -393 1 -128 3 -140 33 -221 109 -287 306 -467 574
-525 100 -21 294 -21 378 1 234 60 406 191 499 377 63 128 83 218 84 378 1
163 -15 236 -78 365 -97 200 -251 330 -475 405 -73 25 -268 36 -353 20z"/>
<path d="M5615 4861 c-172 -79 -299 -140 -745 -359 -135 -66 -357 -175 -495
-242 -236 -116 -441 -213 -494 -236 -23 -10 -22 -11 28 -33 141 -60 447 -101
546 -72 17 4 163 96 325 203 383 253 704 458 910 581 91 54 169 102 174 107 8
8 -61 129 -74 129 -3 0 -81 -35 -175 -78z"/>
</g>
</svg>
